<svg width="600" height="588" viewBox="0 0 600 588" fill="none" xmlns="http://www.w3.org/2000/svg">
<path d="M562.527 342.054C584.526 301.72 602.101 257.058 599.796 211.148C597.396 163.334 573.627 119.008 544.617 80.9605C529.852 61.5972 513.303 43.1184 492.734 30.1195C474.322 18.4835 453.271 11.6172 431.984 7.04765C377.342 -4.68131 319.638 -1.71851 266.492 15.5474C239.666 24.2636 213.924 36.6031 190.978 53.0298C154.816 78.9114 126.439 114.244 101.592 151.158C63.158 208.252 31.8987 270.55 12.9394 336.748C0.0157564 381.875 -6.89905 431.27 10.0501 475.049C29.6997 525.798 79.9185 560.883 133.293 571.04C186.667 581.197 242.395 569.007 291.736 546.247C341.077 523.487 379.451 481.776 428.019 457.404C525.871 408.306 552.5 360.438 562.527 342.054Z" fill="#004BF3"/>
<path d="M287.85 210.497C287.85 210.497 277.362 246.039 273.992 251.489C261.73 271.359 256.511 280.941 236.826 288.479C230.398 290.942 221.042 292.523 213.49 287.484C205.937 282.445 203.349 269.455 201.736 269.455C201.291 269.455 201.407 269.936 201.404 270.028C201.379 271.238 202.85 277.173 201.436 276.667C201.421 276.663 199.908 274.918 199.084 269.915C198.547 266.652 198.144 266.022 197.504 266.266C196.538 266.638 196.648 271.61 196.878 272.388C196.917 272.523 197.242 274.621 197.143 274.572C196.966 274.483 195.782 274.533 194.647 270.254C193.968 267.696 193.561 264.409 192.783 264.922C191.641 265.679 193.706 273.482 192.744 273.811C191.783 274.143 189.848 267.678 188.933 266.249C188.561 265.672 187.048 266.723 188.225 270.835C188.873 273.103 189.884 275.265 190.718 277.442C190.856 277.799 191.577 279.437 191.259 279.841C190.011 281.437 185.047 277.374 184.021 279.158C183.42 280.202 188.141 282.021 194.922 290.995C200.343 297.594 209.777 305.726 220.59 307.485C234.776 309.792 260.959 304.286 288.67 265.215C295.784 255.194 307.509 217.181 287.85 210.497Z" fill="#FF9388"/>
<path d="M109.193 546.865C103.677 551.639 100.983 558.553 95.1732 563.203C93.8366 564.268 92.5848 565.422 91.1881 566.423C90.9335 566.604 89.7207 566.989 89.7207 567.4C89.7207 570.528 94.6498 574.654 96.9906 576.148C97.8463 576.689 99.6709 577.598 100.626 576.774C102.606 575.075 103.748 572.453 105.24 570.341C107.305 567.414 110.445 564.951 113.21 562.711C114.907 561.331 116.725 560.163 118.525 558.928C119.09 558.543 120.151 558.022 120.413 557.322C121.042 555.644 119.766 554.664 118.804 553.539C117.068 551.515 115.166 549.99 112.931 548.503C111.902 547.817 110.243 545.952 109.193 546.865Z" fill="#FFAC88"/>
<path d="M104.492 570.865C107.459 571.134 106.409 573.937 105.443 575.798C103.87 578.827 100.097 586.764 96.0024 586.672C85.8647 586.446 64.5924 566.116 62.5557 562.712C60.3775 559.078 56.5268 552.425 59.2354 548.03C60.4093 546.119 61.9899 547.347 63.3407 548.331C66.4276 550.581 68.6764 553.405 72.0886 555.408C75.6034 557.475 80.2673 559.41 84.3478 559.775C87.4595 560.054 90.9212 558.95 93.8525 560.437C95.3199 561.183 93.9763 563.222 93.6934 564.311C93.308 565.798 93.7111 567.779 94.5703 569.021C97.4486 573.183 100.875 570.54 104.492 570.865Z" fill="#FF7A00"/>
<path d="M99.0163 581.78C99.5962 582.314 95.8799 580.142 94.9818 579.802C91.7464 578.577 88.5711 577.488 85.4771 575.906C79.1866 572.693 73.8226 568.811 68.409 564.302C64.6998 561.217 61.1603 556.588 60.9375 551.521" stroke="white" stroke-linecap="round" stroke-linejoin="round"/>
<path d="M345.107 548.088C344.623 549.588 351.211 556.733 351.858 560.282C352.692 564.865 354.927 568.864 356.281 569.203C357.423 569.49 360.33 564.607 360.931 563.856C361.511 563.131 362.794 562.487 363.049 561.606C363.597 559.688 361.592 556.705 360.464 555.123C358.123 551.843 356.483 545.314 354.704 543.976C352.664 542.444 345.712 546.216 345.107 548.088Z" fill="#FFAC88"/>
<path d="M360.466 555.122C359.66 554.156 363.677 553.926 366.314 557.132C368.956 560.341 369.886 563.859 368.344 567.578C366.795 571.297 352.641 587.136 352.641 587.136C352.641 587.136 349.303 588.131 341.874 587.985C336.393 587.872 332.104 587.43 332.104 587.43C332.104 587.43 331.061 584.564 331.807 583.969C334.731 581.626 337.03 582.157 343.812 577.267C345.382 576.134 348.214 569.906 351.859 560.281C352.994 557.284 355.084 565.798 356.028 565.593C359.6 564.8 361.134 555.925 360.466 555.122Z" fill="#FF7A00"/>
<path d="M345.087 580.13C345.087 580.513 344.461 580.13 344.355 580.092C343.206 579.656 342.17 579.225 341.247 578.365C341.12 578.248 340.388 577.349 340.671 577.137C341.039 576.864 342 577.31 342.361 577.406C343.574 577.721 346.466 579.217 347.697 578.478C348.206 578.177 347.085 577.434 346.622 577.055C345.678 576.287 344.684 575.626 343.783 574.791C343.652 574.667 343.001 573.959 343.245 573.676C343.588 573.29 345.36 574.111 345.547 574.175C346.378 574.472 349.91 575.873 350.656 574.943C350.957 574.561 350.108 573.743 349.889 573.52C348.995 572.625 348.008 571.751 346.976 571.022C346.795 570.898 345.667 570.339 345.667 570.063C345.667 569.826 346.109 570.222 346.318 570.332C346.732 570.541 347.113 570.767 347.548 570.944C348.973 571.528 350.427 571.79 351.958 571.79" stroke="white" stroke-linecap="round" stroke-linejoin="round"/>
<path d="M335.756 586.312C339.334 585.307 343.436 585.821 347.11 585.07C348.156 584.858 350.038 584.847 350.939 584.235C352.294 583.319 353.627 581.319 354.709 580.098C358.733 575.558 362.251 570.257 366.483 565.961" stroke="white" stroke-linecap="round" stroke-linejoin="round"/>
<path d="M387.801 260.961C385.665 265.388 373.321 256.669 373.88 253.424C374.078 252.263 376.532 248.024 379.063 248.792C383.611 250.172 387.801 260.961 387.801 260.961Z" fill="#162243"/>
<path d="M330.417 354.358C305.549 370.59 260.257 350.547 253.246 339.496C246.231 328.445 269.157 278.241 293.534 294.268C317.903 310.298 342.722 346.329 330.417 354.358Z" fill="#162243"/>
<path d="M242.093 301.505C237.09 303.126 237.504 310.09 236.616 314.513C236.22 316.513 236.004 318.477 235.937 320.416C235.573 330.979 239.579 340.728 241.634 351.029C245.902 372.385 254.911 393.147 263.298 413.331C292.409 483.433 339.401 554.521 339.401 554.521C351.378 553.053 355.967 550.696 359.528 546.152C359.828 545.77 342.803 499.141 337.181 483.394C332.178 469.363 328.62 454.575 324.413 440.261C314.88 407.829 305.842 375.22 296.592 342.816C293.88 333.314 291.539 323.788 287.926 314.747C286.692 311.654 285.468 286.013 282.558 283.829C274.362 277.672 262.092 292.945 252.956 290.659C249.466 289.789 245.414 300.429 242.093 301.505Z" fill="#002777"/>
<path d="M282.515 362.419C292.73 423.766 320.352 481.549 347.865 536.621" stroke="#003094" stroke-linecap="round" stroke-linejoin="round"/>
<path d="M243.371 306.154C243.371 305.927 243.063 307.934 242.957 308.475C242.635 310.068 242.367 311.678 242.048 313.284C241.38 316.632 239.835 319.813 238.647 322.987C238.067 324.541 237.54 326.668 236.327 327.881" stroke="#003094" stroke-linecap="round" stroke-linejoin="round"/>
<path d="M291.498 286.146C290.622 286.047 271.708 309.948 270.092 312.021C266.1 317.159 262.299 322.368 258.155 327.439C245.39 343.048 233.015 359.05 219.836 374.27C207.595 388.404 197.122 403.609 185.75 418.401C173.191 434.739 113.886 523.56 107.377 534.417C106.429 535.999 101.38 544.52 101.794 546.176C102.264 548.059 105.121 549.442 106.415 550.415C112.546 555.019 118.932 559.662 125.095 564.29C127.924 566.414 157.693 534.541 164.955 526.71C176.889 513.847 188.123 500.477 199.618 487.204C219.143 464.655 254.941 420.758 282.517 385.658C301.901 360.982 317.222 340.656 319.973 335.15C321.593 331.916 331.596 316.162 329.672 312.308C327.625 308.21 323.629 301.54 319.902 299.675C308.909 294.172 303.669 287.505 291.498 286.146Z" fill="#002777"/>
<path d="M262.359 411.059C269.315 402.368 276.135 393.776 282.518 385.658C289.604 376.638 296.146 368.202 301.732 360.856" stroke="#003094" stroke-linecap="round" stroke-linejoin="round"/>
<path d="M270.094 312.022C266.102 317.16 262.301 322.369 258.157 327.44C252.559 334.287 247.036 341.206 241.488 348.102" stroke="#003094" stroke-linecap="round" stroke-linejoin="round"/>
<path d="M285.888 343.048C285.888 343.048 275.836 354.417 274.524 356.151C263.343 370.936 252.375 385.922 241.403 400.863C221.998 427.297 203.59 454.431 183.633 480.455C163.804 506.312 141.132 530.056 122.204 556.575" stroke="#003094" stroke-linecap="round" stroke-linejoin="round"/>
<path d="M294.166 307.782C294.166 306.087 294.166 309.279 294.166 312.216C294.166 314.159 294.339 316.077 294.551 317.998C295.354 325.206 295.81 332.277 298.406 339.198C298.689 339.963 300.354 345.752 301.291 345.752C301.613 345.752 301.291 345.108 301.291 344.789C301.291 341.396 299.979 337.963 299.558 334.577C298.572 326.689 298.593 319.173 298.593 311.257" stroke="#003094" stroke-linecap="round" stroke-linejoin="round"/>
<path d="M75.8213 560.433C75.9168 559.658 76.0865 558.147 76.288 557.762C76.7654 556.842 77.5468 556.106 78.247 555.341C78.4096 555.161 78.9188 554.984 78.9612 555.217C79.2123 556.757 76.6169 560.38 77.9393 561.594C78.3035 561.93 78.9047 561.06 79.0708 560.83C79.8417 559.765 80.5206 558.593 81.2596 557.496C81.394 557.298 81.8996 556.254 82.1471 556.244C82.2815 556.24 82.0022 557.882 81.9951 557.914C81.8784 558.675 80.8742 562.309 81.7157 562.818C81.935 562.949 82.4512 562.206 82.4937 562.157C83.5686 560.982 84.3854 559.694 85.1067 558.268C85.1668 558.151 85.6159 557.358 85.5593 557.305C85.1775 556.955 85.234 558.296 85.1315 558.806C84.8769 560.09 84.6152 561.29 84.7602 562.595C84.7779 562.769 84.8345 563.979 85.181 564.011C86.8535 564.177 87.2106 560.009 87.932 559.22" stroke="white" stroke-linecap="round" stroke-linejoin="round"/>
<path d="M279.081 210.138C279.884 213.373 285.071 216.023 287.904 217.913C288.763 218.486 291.461 220.192 291.461 221.313C291.461 222.945 281.277 235.394 277.384 239.29C264.545 252.139 255.394 264.807 244.783 279.716C229.901 300.615 234.416 318.309 235.859 319.88C235.859 319.88 236.014 317.859 238.061 314.275C245.501 302.215 277.84 300.063 300.824 312.933C323.807 325.804 335.96 348.104 330.423 354.361C330.423 354.361 344.064 346.261 356.56 309.827C369.993 270.643 385.134 255.89 385.134 255.89C385.134 255.89 386.198 257.072 386.866 258.342C387.531 259.613 387.803 260.964 387.803 260.964C390.017 256.534 392.382 246.481 393.086 241.562C395.031 227.966 396.537 212.191 390.176 199.455C380.233 179.553 356.776 191.033 340.171 191.033C335.43 191.033 333.602 187.845 330.783 184.554C328.086 181.408 322.538 177.865 318.486 177.105C305.502 174.67 290.464 190.467 284.661 200.909C283.119 203.694 278.293 206.961 279.081 210.138Z" fill="#46ECBA"/>
<path d="M334.035 185.131C332.54 186.66 331.026 188.337 329.771 190.064C326.256 194.894 324.587 203.663 332.748 205.025C337.875 205.882 344.77 201.759 347.96 198.075C350.315 195.358 351.46 192.877 352.256 189.406C352.539 188.188 355.06 183.397 353.982 182.424C350.75 179.515 342.667 183.188 338.766 183.581C337.133 183.74 335.241 183.896 334.035 185.131Z" fill="#FF9388"/>
<path d="M331.135 189.252C331.835 190.633 332.676 191.68 333.681 192.155C336.156 193.33 342.621 192.392 348.996 189.252" stroke="#DD7A64" stroke-linecap="round" stroke-linejoin="round"/>
<path d="M244.784 279.716C255.396 264.808 264.547 252.143 277.386 239.29C281.279 235.394 290.105 223.777 291.462 221.314C292.82 218.851 297.155 211.285 298.644 202.293" stroke="#533CD6" stroke-linecap="round" stroke-linejoin="round"/>
<path d="M385.135 255.888C385.135 255.888 371.08 276.787 361.006 287.821C360.144 289.24 361.402 291.108 359.648 292.538C358.57 293.423 356.403 292.449 355.784 292.955C352.608 295.549 349.957 299.134 346.527 301.576C342.977 304.106 338.624 306.13 334.696 308.02C318.176 315.982 296.126 315.504 280.476 305.327C272.874 300.38 269.384 292.255 267.064 283.787C266.446 281.529 265.321 275.453 267.05 273.461C267.34 273.125 267.52 273.772 267.559 273.857C268.04 274.965 268.931 281.019 270.056 280.014C270.063 280.004 270.073 272.679 270.211 271.787C270.289 271.285 270.441 269.271 271.127 269.257C272.16 269.236 272.566 273.532 272.651 274.338C272.665 274.476 273.164 276.543 273.231 276.458C273.362 276.306 273.606 270.085 273.97 268.875C274.133 268.323 274.539 266.274 275.448 266.458C276.792 266.723 276.703 272.983 277.004 274.08C277.195 274.777 276.979 272.629 277.078 271.911C277.156 271.338 278.393 265.453 279.974 266.822C280.49 267.272 280.133 269.048 280.069 269.614C279.804 271.96 280.207 274.342 280.257 276.674C280.267 277.056 280.214 278.857 280.66 279.112C282.417 280.117 285.476 274.469 287.106 275.733C289.04 277.233 285.14 282.35 285.359 284.53C286.056 291.278 294.036 293.15 299.612 294.654C308.194 296.972 321.075 296.83 329.049 292.531C338.829 287.255 348.917 273.528 355.126 264.494C357.456 261.097 364.355 248.74 365.154 247.77C368.715 246.252 379.16 250.045 381.097 251.535C383.332 253.588 385.135 255.888 385.135 255.888Z" fill="#FFAC88"/>
<path d="M371.36 225.348C370.575 237.305 365.15 247.769 365.15 247.769C367.831 246.562 375.214 247.298 381.094 251.534C383.354 253.162 385.132 255.887 385.132 255.887C385.132 255.887 387.42 259.206 387.802 260.961" stroke="#144C93" stroke-width="1.5" stroke-linecap="round" stroke-linejoin="round"/>
<path d="M330.628 185.761C328.552 187.838 326.374 189.82 325.073 192.513C323.312 196.165 323.107 202.085 326.268 205.09C328.018 206.753 330.699 207.79 333.015 208.334C335.539 208.929 338.792 207.797 341.084 206.877C347.155 204.445 352.865 199.47 353.979 192.778" stroke="#144C93" stroke-width="1.5" stroke-linecap="round" stroke-linejoin="round"/>
<path d="M255.284 314.54C252.508 314.54 249.722 314.353 246.999 313.981C236.767 312.584 221.106 305.269 216.962 302.587C207.005 296.143 198.692 286.44 192.253 273.75C186.422 262.253 182.243 248.303 180.174 233.409C176.879 209.413 181.08 186.702 192.324 167.735C203.635 148.658 221.329 134.669 243.488 127.284C251.522 124.492 259.633 123.076 267.614 123.076C285.152 123.076 301.244 129.722 314.146 142.299C327.346 155.162 335.97 173.117 339.089 194.218C342.982 220.334 337.932 247.09 324.871 269.564C311.784 292.084 292.27 307.46 269.93 312.856C265.033 313.974 260.104 314.54 255.284 314.54Z" fill="#F7AB3E"/>
<path d="M267.629 123.783C276.256 123.783 284.619 125.443 292.49 128.716C300.269 131.954 307.393 136.693 313.663 142.804C320.024 149.004 325.363 156.477 329.528 165.016C333.849 173.873 336.833 183.732 338.4 194.316C340.352 207.41 340.048 220.687 337.495 233.773C335.027 246.427 330.578 258.349 324.27 269.202C317.955 280.066 310.109 289.295 300.947 296.634C291.461 304.231 280.977 309.455 269.782 312.162C264.927 313.266 260.051 313.828 255.292 313.828C252.548 313.828 249.794 313.641 247.103 313.273C236.972 311.889 221.46 304.642 217.355 301.984C207.504 295.608 199.273 286 192.894 273.424C187.095 261.997 182.944 248.126 180.886 233.309C179.245 221.366 179.479 209.657 181.575 198.51C183.637 187.572 187.459 177.338 192.943 168.091C204.166 149.163 221.726 135.281 243.722 127.948L243.729 127.945L243.737 127.941C251.685 125.185 259.722 123.783 267.629 123.783ZM267.622 122.368C259.719 122.368 251.533 123.741 243.273 126.611C197.604 141.834 172.743 184.458 179.482 233.507C183.499 262.433 195.489 289.528 216.584 303.181C220.587 305.771 236.4 313.248 246.912 314.681C249.652 315.056 252.445 315.247 255.292 315.247C260.097 315.247 265.044 314.699 270.107 313.542C316.802 302.26 347.88 248.303 339.8 194.111C333.315 150.246 303.274 122.364 267.622 122.368Z" fill="#FFD550"/>
<path d="M268.331 228.549L267.737 229.833L330.956 259.155C331.147 258.723 331.334 258.292 331.521 257.856L268.331 228.549Z" fill="#FFD550"/>
<path d="M255.365 259.372L254.771 260.656L312.658 287.504C312.99 287.14 313.319 286.772 313.644 286.4L255.365 259.372Z" fill="#FFD550"/>
<path d="M265.098 236.251L264.504 237.536L327.287 266.656C327.51 266.238 327.733 265.824 327.952 265.403L265.098 236.251Z" fill="#FFD550"/>
<path d="M261.856 243.958L261.262 245.243L323.045 273.899C323.299 273.499 323.55 273.092 323.801 272.689L261.856 243.958Z" fill="#FFD550"/>
<path d="M252.135 267.076L251.541 268.361L306.405 293.808C306.78 293.464 307.155 293.117 307.522 292.767L252.135 267.076Z" fill="#FFD550"/>
<path d="M235.9 305.609L235.306 306.894L253.237 315.21C254.365 315.245 255.5 315.256 256.645 315.231L235.9 305.609Z" fill="#FFD550"/>
<path d="M239.149 297.9L238.555 299.184L269.692 313.626C269.823 313.597 269.954 313.569 270.085 313.541C270.686 313.396 271.28 313.24 271.878 313.081L239.149 297.9Z" fill="#FFD550"/>
<path d="M248.876 274.783L248.282 276.068L299.25 299.71C299.677 299.391 300.105 299.069 300.53 298.744L248.876 274.783Z" fill="#FFD550"/>
<path d="M245.632 282.49L245.038 283.775L291.041 305.113C291.536 304.827 292.031 304.536 292.523 304.239L245.632 282.49Z" fill="#FFD550"/>
<path d="M242.392 290.198L241.798 291.482L281.411 309.855C281.998 309.615 282.585 309.367 283.169 309.109L242.392 290.198Z" fill="#FFD550"/>
<path d="M258.606 251.665L258.012 252.95L318.175 280.856C318.469 280.47 318.762 280.088 319.049 279.702L258.606 251.665Z" fill="#FFD550"/>
<path d="M294.285 166.897L293.691 168.182L338.931 189.162C338.817 188.582 338.697 188.012 338.577 187.439L294.285 166.897Z" fill="#FFD550"/>
<path d="M291.053 174.601L290.459 175.886L340.412 199.057C340.355 198.509 340.288 197.957 340.221 197.408L291.053 174.601Z" fill="#FFD550"/>
<path d="M297.534 159.188L296.94 160.473L336.37 178.761C336.186 178.148 335.999 177.54 335.804 176.938L297.534 159.188Z" fill="#FFD550"/>
<path d="M300.781 151.483L300.187 152.767L332.282 167.654C331.989 166.989 331.692 166.331 331.384 165.676L300.781 151.483Z" fill="#FFD550"/>
<path d="M304.022 143.777L303.428 145.062L325.697 155.391C325.202 154.627 324.7 153.873 324.187 153.13L304.022 143.777Z" fill="#FFD550"/>
<path d="M281.313 197.721L280.719 199.006L340.076 226.537C340.14 226.045 340.196 225.553 340.253 225.058L281.313 197.721Z" fill="#FFD550"/>
<path d="M278.075 205.425L277.481 206.709L338.653 235.082C338.748 234.608 338.847 234.13 338.939 233.656L278.075 205.425Z" fill="#FFD550"/>
<path d="M287.808 182.307L287.214 183.591L341.021 208.55C341.007 208.022 340.996 207.495 340.975 206.968L287.808 182.307Z" fill="#FFD550"/>
<path d="M274.829 213.133L274.235 214.418L336.651 243.368C336.782 242.908 336.902 242.444 337.026 241.981L274.829 213.133Z" fill="#FFD550"/>
<path d="M271.587 220.839L270.993 222.123L334.081 251.385C334.24 250.939 334.403 250.493 334.555 250.044L271.587 220.839Z" fill="#FFD550"/>
<path d="M284.561 190.013L283.967 191.298L340.882 217.697C340.91 217.187 340.935 216.681 340.956 216.171L284.561 190.013Z" fill="#FFD550"/>
<path d="M243.977 308.631C225.678 308.631 209.159 301.147 196.207 286.985C183.838 273.46 175.387 254.192 172.406 232.73C169.083 208.55 173.054 184.254 183.58 164.313C194.654 143.339 211.998 128.424 233.737 121.176C241.77 118.384 249.882 116.969 257.862 116.969C275.4 116.969 291.492 123.615 304.395 136.191C317.594 149.054 326.218 167.01 329.337 188.111C333.23 214.226 328.181 240.982 315.119 263.456C302.033 285.977 282.518 301.352 260.178 306.749C254.708 307.998 249.252 308.631 243.977 308.631Z" fill="#FFD550"/>
<path d="M257.861 117.68C266.489 117.68 274.852 119.34 282.722 122.613C290.501 125.851 297.626 130.589 303.895 136.704C310.257 142.904 315.596 150.378 319.761 158.916C324.082 167.774 327.066 177.633 328.633 188.217C330.584 201.31 330.28 214.587 327.727 227.673C325.259 240.327 320.811 252.249 314.503 263.102C308.188 273.966 300.342 283.195 291.18 290.534C281.693 298.132 271.21 303.355 260.015 306.062C254.591 307.297 249.195 307.923 243.972 307.923C225.876 307.923 209.54 300.517 196.726 286.507C190.598 279.805 185.453 271.776 181.436 262.639C177.395 253.445 174.591 243.349 173.102 232.634C171.447 220.596 171.578 208.592 173.488 196.954C175.386 185.379 178.993 174.504 184.202 164.642C189.52 154.571 196.372 145.823 204.568 138.643C213.132 131.145 223.019 125.494 233.955 121.845L233.962 121.842L233.969 121.838C241.918 119.081 249.955 117.68 257.861 117.68ZM257.854 116.265C249.952 116.265 241.766 117.638 233.506 120.508C187.836 135.731 164.959 183.779 171.699 232.829C177.766 276.503 205.491 309.339 243.972 309.339C249.234 309.339 254.7 308.723 260.337 307.438C307.032 296.157 338.109 242.199 330.029 188.008C323.548 144.142 293.507 116.261 257.854 116.265Z" fill="#FFE652"/>
<path d="M257.251 126.786C265.044 126.786 272.603 128.287 279.711 131.245C286.74 134.168 293.175 138.453 298.843 143.977C310.671 155.51 318.404 171.611 321.204 190.55C322.969 202.394 322.693 214.397 320.388 226.234C318.156 237.678 314.133 248.46 308.426 258.277C302.715 268.1 295.622 276.444 287.338 283.079C278.763 289.948 269.287 294.669 259.167 297.114C254.266 298.232 249.39 298.795 244.67 298.795C228.32 298.795 213.561 292.103 201.984 279.445C196.444 273.387 191.794 266.129 188.162 257.87C184.506 249.557 181.971 240.428 180.627 230.735C177.64 208.997 181.204 187.16 190.666 169.247C195.475 160.142 201.67 152.233 209.077 145.743C216.817 138.963 225.756 133.853 235.643 130.559L235.65 130.555L235.657 130.551C242.842 128.053 250.101 126.786 257.251 126.786ZM257.243 125.371C250.087 125.371 242.672 126.613 235.194 129.214C193.838 142.997 173.121 186.509 179.224 230.926C184.719 270.478 209.823 300.21 244.67 300.21C249.436 300.21 254.386 299.655 259.489 298.49C301.775 288.274 329.917 239.412 322.601 190.341C316.728 150.616 289.526 125.367 257.243 125.371Z" fill="#F48521"/>
<path d="M285.291 208.716C281.39 205.839 276.235 204.728 269.828 205.372L269.743 204.774C274.616 201.77 277.946 197.909 279.732 193.192C281.514 188.471 282.066 183.758 281.383 179.058C280.733 174.568 279.417 171.022 277.441 168.425C275.468 165.834 272.996 164.061 270.026 163.095C267.056 162.14 263.637 161.846 259.765 162.218C257.58 162.427 255.313 162.805 252.972 163.34L250.243 144.195L239.769 147.649L242.435 166.436L235.219 168.708L232.574 150.002L222.083 153.399L224.699 171.992L222.663 172.622L219.997 173.446L207.423 177.3L209.226 190.184L221.825 186.43L231.64 255.505L215.81 259.535L217.677 272.667L233.539 268.757L238.054 267.628L238.309 267.564L240.947 285.884L251.65 283.301L248.98 264.872L256.303 263.003L258.99 281.507L269.676 278.867L266.946 260.151C270.433 259.026 273.665 257.617 276.638 255.915C280.538 253.679 283.788 250.943 286.394 247.719C288.996 244.485 290.863 240.808 292.005 236.697C293.144 232.577 293.349 228.037 292.617 223.073C291.638 216.392 289.194 211.607 285.291 208.716ZM266.72 185.789C267.378 190.35 266.55 194.275 264.234 197.555C261.915 200.828 257.725 203.355 251.664 205.135L240.851 208.277L237.078 181.808L248.241 178.379C253.839 176.642 258.16 176.327 261.197 177.434C264.238 178.549 266.076 181.334 266.72 185.789ZM274.114 240.055C271.108 243.689 266.423 246.354 260.058 248.059L247.053 251.495L242.594 220.472L255.539 216.802C261.961 214.962 267.021 214.774 270.719 216.25C274.418 217.736 276.638 221.034 277.384 226.148C278.205 231.771 277.116 236.41 274.114 240.055Z" fill="#F48521"/>
<path d="M334.696 308.023C318.176 315.985 296.126 315.507 280.476 305.33C272.874 300.383 269.384 292.258 267.064 283.79C266.446 281.532 265.321 275.456 267.05 273.464C267.34 273.128 267.52 273.775 267.559 273.86C268.04 274.968 268.931 281.022 270.056 280.017C270.063 280.007 270.073 272.682 270.211 271.79C270.289 271.288 270.441 269.274 271.127 269.26C272.16 269.239 272.566 273.535 272.651 274.341C272.665 274.479 273.164 276.546 273.231 276.461C273.362 276.309 273.606 270.088 273.97 268.878C274.133 268.326 274.539 266.277 275.448 266.461C276.792 266.726 276.703 272.986 277.004 274.083C277.195 274.78 276.979 272.632 277.078 271.914C277.156 271.341 278.393 265.456 279.974 266.825C280.49 267.275 280.133 269.051 280.069 269.617C279.804 271.963 280.207 274.345 280.257 276.677C280.267 277.059 280.214 278.86 280.66 279.115C282.417 280.12 285.476 274.472 287.106 275.736C289.04 277.236 285.14 282.353 285.359 284.533C286.056 291.281 294.036 293.153 299.612 294.657C308.194 296.975 321.075 296.833 329.049 292.534C338.833 287.258 338.624 306.129 334.696 308.023Z" fill="#FFAC88"/>
<path d="M201.733 269.458C201.287 269.458 201.404 269.939 201.4 270.031C201.375 271.241 202.846 277.176 201.432 276.67C201.418 276.666 199.904 274.921 199.081 269.918C198.543 266.655 198.14 266.025 197.5 266.269C196.535 266.641 196.644 271.613 196.874 272.391C196.913 272.526 197.238 274.624 197.139 274.575C196.963 274.486 195.778 274.536 194.643 270.257C193.964 267.699 193.557 264.412 192.779 264.925C191.637 265.682 193.702 273.485 192.741 273.814C191.779 274.146 189.845 267.681 188.929 266.252C188.558 265.675 187.044 266.726 188.222 270.838C188.869 273.106 189.88 275.268 190.714 277.444C190.852 277.802 191.574 279.44 191.255 279.844C190.007 281.44 185.043 277.377 184.017 279.161C183.416 280.205 188.137 282.024 194.919 290.998C200.339 297.597 209.773 305.729 220.586 307.488C224.059 308.054 219.278 305.45 216.516 302.279C206.036 290.233 204.501 269.61 201.733 269.458Z" fill="#FFAC88"/>
<path d="M328.249 173.417C327.718 176.433 329.468 191.866 334.765 193.902C336.103 194.416 338.928 194.219 339.729 193.902C339.57 192.729 339.515 192.243 339.515 192.243C339.515 192.243 339.924 190.124 339.924 188.582C381.51 157.706 339.565 140.236 328.249 173.417Z" fill="black" fill-opacity="0.3"/>
<path d="M353.089 148.857C349.49 147.993 345.476 149.632 342.471 151.472C339.83 153.089 334.815 154.168 333.429 159.827C331.198 168.904 329.07 167.615 328.288 172.389C327.804 175.33 329.773 190.065 334.6 192.05C337.86 193.391 346.141 191.65 354.334 185.135C357.75 182.421 361.151 178.876 364.168 174.374C366.54 170.836 367.329 164.151 365.95 160.011C364.949 157.006 361.894 154.618 359.468 152.795C356.961 150.913 356.07 149.575 353.089 148.857Z" fill="#FFAC88"/>
<path d="M357.791 162.915C357.084 161.804 357.706 162.699 355.203 163.297C353.983 163.587 352.551 163.58 351.317 163.449C345.38 162.819 339.288 159.988 335.72 154.754C330.225 146.69 330.108 136.601 336.487 129.382C338.686 126.898 341.745 123.964 344.935 123.179C345.801 122.963 346.685 122.836 347.572 122.772C347.685 122.765 348.707 122.719 348.722 122.772C349.008 123.685 346.77 125.974 347.477 127.093C347.746 127.517 350.497 125.95 350.642 126.735C350.843 127.793 348.817 130.9 349.825 131.972C349.966 132.121 352.088 130.865 352.272 130.752C354.011 129.697 357.028 127.885 358.895 129.584C362.19 132.578 364.846 137.227 365.517 141.785C365.797 143.657 365.758 145.54 365.758 147.429C365.758 147.596 365.62 148.976 365.804 149.107C366.324 149.471 371.567 148.08 374.633 152.564C377.327 156.503 376.359 162.939 374.732 167.462C372.405 173.906 366.925 179.458 361.776 183.428C359.771 184.971 354.178 185.541 354.004 185.258C353.76 184.872 359.655 178.764 359.906 175.852C360.178 172.65 356.921 173.198 355.443 174.631C355.143 174.921 354.439 175.657 354.241 174.936C353.679 172.837 355.525 171.361 356.596 169.85C358.484 167.182 359.478 165.558 357.791 162.915Z" fill="#673700"/>
<path d="M358.969 159.126C360.047 155.881 362.19 153.687 364.121 151.111" stroke="#572211" stroke-linecap="round" stroke-linejoin="round"/>
<path d="M347.261 147.805C347.261 151.414 348.449 154.348 350.398 157.387C350.932 158.215 351.777 158.99 352.473 159.684C352.597 159.811 353.672 160.671 353.591 160.749C353.474 160.866 352.056 160.399 351.911 160.356C349.85 159.737 347.576 158.906 345.808 157.667C340.175 153.725 337.428 147.458 338.694 140.685C338.973 139.181 340.161 135.688 341.604 134.966" stroke="#572211" stroke-linecap="round" stroke-linejoin="round"/>
</svg>
