<svg height="496pt" viewBox="-24 0 496 496" width="496pt" xmlns="http://www.w3.org/2000/svg" xmlns:xlink="http://www.w3.org/1999/xlink"><linearGradient id="a" gradientUnits="userSpaceOnUse" x1="224" x2="224" y1="496" y2="0"><stop offset="0" stop-color="#9f2fff"/><stop offset="1" stop-color="#0bb1d3"/></linearGradient><path d="m408 272v-64c0-13.230469-10.769531-24-24-24h-16v-40h-16v-48h-40.457031c.234375-2.648438.457031-5.304688.457031-8 0-48.519531-39.480469-88-88-88s-88 39.480469-88 88c0 2.695312.222656 5.351562.457031 8h-16.457031c-17.648438 0-32 14.351562-32 32v200c0 22.054688 17.945312 40 40 40h40v16h-40v80h16v-64h24v32h16v-96h-16v16h-32v-96h-16v94.527344c-9.289062-3.3125-16-12.113282-16-22.527344v-172.449219c4.726562 2.753907 10.144531 4.449219 16 4.449219v80h16v-80h216v56h-16c-22.054688 0-40 17.945312-40 40s17.945312 40 40 40h16v56h-40v-16h-16v96h16v-32h24v64h16v-80h-40v-16h56v-72h16c13.230469 0 24-10.769531 24-24zm-72-160v32h-44.078125c7.789063-9.398438 13.375-20.289062 16.664063-32zm-168.230469 20.921875c-8.488281-10.5625-13.816406-23.257813-15.304687-36.921875h16.175781c1.359375 9.464844 5.085937 18.152344 10.574219 25.472656zm111.589844-52.921875c-1.359375-9.464844-5.085937-18.152344-10.574219-25.472656l11.414063-11.414063c8.289062 10.359375 13.785156 23.023438 15.328125 36.886719zm-21.886719-36.785156c-7.320312-5.488282-16.007812-9.214844-25.472656-10.574219v-16.167969c13.863281 1.542969 26.527344 7.039063 36.886719 15.328125zm-41.472656-10.574219c-9.464844 1.359375-18.152344 5.085937-25.472656 10.574219l-11.414063-11.414063c10.359375-8.289062 23.023438-13.785156 36.886719-15.328125zm-36.785156 21.886719c-5.488282 7.320312-9.214844 16.007812-10.574219 25.472656h-16.167969c1.542969-13.863281 7.039063-26.527344 15.328125-36.886719zm4.785156 33.472656c0-22.054688 17.945312-40 40-40s40 17.945312 40 40-17.945312 40-40 40-40-17.945312-40-40zm95.359375 8h16.175781c-1.488281 13.664062-6.816406 26.359375-15.304687 36.921875l-11.445313-11.449219c5.488282-7.320312 9.214844-16.007812 10.574219-25.472656zm-175.359375 32c0-8.824219 7.175781-16 16-16h19.414062c3.289063 11.710938 8.867188 22.601562 16.664063 32h-36.078125c-8.824219 0-16-7.175781-16-16zm75.3125 16 11.214844-11.214844c9.351562 7.007813 20.914062 11.214844 33.472656 11.214844s24.121094-4.207031 33.472656-11.214844l11.214844 11.214844zm212.6875 128c0 4.414062-3.59375 8-8 8h-48c-13.230469 0-24-10.769531-24-24s10.769531-24 24-24h48c2.808594 0 5.496094-.488281 8-1.367188zm-8-56h-16v-16h16c4.40625 0 8 3.59375 8 8s-3.59375 8-8 8zm-56 32h16v16h-16zm-16 200v16h-16v-16zm-32-48h-16v-80h16zm-16 16h16v16h-16zm88 64v16h-16v-16zm-168-32v16h-16v-16zm16-128h16v80h-16zm0 96h16v16h-16zm-56 64v16h-16v-16zm104-16h-16v-144h16zm-16 16h16v16h-16zm-16-296v16h-16v80h16v16h16v-16h8c13.230469 0 24-10.769531 24-24 0-6.144531-2.320312-11.753906-6.128906-16 3.808594-4.246094 6.128906-9.855469 6.128906-16 0-13.230469-10.769531-24-24-24h-8v-16zm24 80h-24v-16h24c4.40625 0 8 3.59375 8 8 0 4.414062-3.59375 8-8 8zm8-40c0 4.40625-3.59375 8-8 8h-24v-16h24c4.40625 0 8 3.59375 8 8zm104-224h16v16h-16zm0 16v16h-16v-16zm0 16h16v16h-16zm16 0v-16h16v16zm64 64h-16v-16h16zm-16 0v16h-16v-16zm16 32h-16v-16h16zm0-16v-16h16v16zm-328-80v16h-16v-16zm-16 16v16h-16v-16zm0 16h16v16h-16zm16 0v-16h16v16zm-72 72h-16v-16h16zm-32 0h16v16h-16zm16 16h16v16h-16zm16 0v-16h16v16zm0 0" fill="url(#a)"/></svg>